<svg width="86" height="77" viewBox="0 0 86 77" fill="none" xmlns="http://www.w3.org/2000/svg">
<g filter="url(#filter0_d_11_312)">
<path d="M25.5 41.7083C31.31 41.7083 36 37.4092 36 32.0833C36 26.7575 31.31 22.4583 25.5 22.4583C19.69 22.4583 15 26.7575 15 32.0833C15 37.4092 19.69 41.7083 25.5 41.7083ZM67.5 22.4583H46.5C42.65 22.4583 39.5 25.3458 39.5 28.875V44.9167H11.5V19.25C11.5 17.4854 9.925 16.0417 8 16.0417C6.075 16.0417 4.5 17.4854 4.5 19.25V60.9583C4.5 62.7229 6.075 64.1667 8 64.1667C9.925 64.1667 11.5 62.7229 11.5 60.9583V54.5417H74.5V60.9583C74.5 62.7229 76.075 64.1667 78 64.1667C79.925 64.1667 81.5 62.7229 81.5 60.9583V35.2917C81.5 28.2013 75.235 22.4583 67.5 22.4583Z" fill="url(#paint0_linear_11_312)"/>
</g>
<defs>
<filter id="filter0_d_11_312" x="-3" y="0" width="92" height="85" filterUnits="userSpaceOnUse" color-interpolation-filters="sRGB">
<feFlood flood-opacity="0" result="BackgroundImageFix"/>
<feColorMatrix in="SourceAlpha" type="matrix" values="0 0 0 0 0 0 0 0 0 0 0 0 0 0 0 0 0 0 127 0" result="hardAlpha"/>
<feOffset dy="4"/>
<feGaussianBlur stdDeviation="2"/>
<feComposite in2="hardAlpha" operator="out"/>
<feColorMatrix type="matrix" values="0 0 0 0 0 0 0 0 0 0 0 0 0 0 0 0 0 0 0.25 0"/>
<feBlend mode="normal" in2="BackgroundImageFix" result="effect1_dropShadow_11_312"/>
<feBlend mode="normal" in="SourceGraphic" in2="effect1_dropShadow_11_312" result="shape"/>
</filter>
<linearGradient id="paint0_linear_11_312" x1="43" y1="16.0417" x2="43" y2="64.1667" gradientUnits="userSpaceOnUse">
<stop stop-color="#284A80"/>
<stop offset="1" stop-color="#284A80" stop-opacity="0.62"/>
</linearGradient>
</defs>
</svg>
