<svg width="89" height="88" viewBox="0 0 89 88" fill="none" xmlns="http://www.w3.org/2000/svg">
<path d="M77.0293 37.235L71.9563 22.187C71.2204 19.9961 69.8049 18.0902 67.911 16.7402C66.017 15.3901 63.7409 14.6646 61.4061 14.6667H27.5935C25.2587 14.6646 22.9827 15.3901 21.0887 16.7402C19.1947 18.0902 17.7793 19.9961 17.0433 22.187L11.9703 37.235C10.6213 37.7931 9.46929 38.7331 8.65904 39.9368C7.8488 41.1404 7.4165 42.5541 7.4165 44V62.3333C7.4165 65.0393 8.91467 67.3787 11.1248 68.651V77C11.1248 77.9725 11.5155 78.9051 12.211 79.5927C12.9064 80.2804 13.8497 80.6667 14.8332 80.6667H18.5415C19.525 80.6667 20.4682 80.2804 21.1637 79.5927C21.8591 78.9051 22.2498 77.9725 22.2498 77V69.6667H66.7498V77C66.7498 77.9725 67.1405 78.9051 67.836 79.5927C68.5314 80.2804 69.4747 80.6667 70.4582 80.6667H74.1665C75.15 80.6667 76.0932 80.2804 76.7887 79.5927C77.4841 78.9051 77.8748 77.9725 77.8748 77V68.651C78.9999 68.013 79.9351 67.0931 80.5861 65.984C81.2371 64.8749 81.581 63.6157 81.5832 62.3333V44C81.5832 42.5541 81.1509 41.1404 80.3406 39.9368C79.5304 38.7331 78.3783 37.7931 77.0293 37.235ZM27.5935 22H61.4024C63.0007 22 64.4173 23.0047 64.9216 24.508L69.0231 36.6667H19.9766L24.0743 24.508C24.3204 23.7776 24.7927 23.1423 25.4244 22.6921C26.056 22.242 26.8149 21.9998 27.5935 22ZM20.3957 58.6667C19.6649 58.6664 18.9414 58.5239 18.2664 58.2472C17.5914 57.9704 16.9781 57.565 16.4616 57.0539C15.9451 56.5429 15.5354 55.9362 15.256 55.2686C14.9766 54.601 14.8329 53.8855 14.8332 53.163C14.8334 52.4405 14.9776 51.7251 15.2574 51.0577C15.5373 50.3903 15.9474 49.7839 16.4642 49.2731C16.9811 48.7624 17.5947 48.3574 18.2699 48.0811C18.945 47.8048 19.6687 47.6628 20.3994 47.663C21.8751 47.6635 23.2903 48.2436 24.3334 49.2757C25.3766 50.3079 25.9624 51.7075 25.9619 53.1667C25.9614 54.6258 25.3747 56.0251 24.3308 57.0565C23.2869 58.088 21.8714 58.6671 20.3957 58.6667ZM68.604 58.6667C67.8733 58.6664 67.1498 58.5239 66.4748 58.2472C65.7998 57.9704 65.1865 57.565 64.67 57.0539C64.1534 56.5429 63.7438 55.9362 63.4644 55.2686C63.1849 54.601 63.0413 53.8855 63.0415 53.163C63.0417 52.4405 63.1859 51.7251 63.4658 51.0577C63.7456 50.3903 64.1557 49.7839 64.6726 49.2731C65.1894 48.7624 65.803 48.3574 66.4782 48.0811C67.1534 47.8048 67.877 47.6628 68.6077 47.663C70.0835 47.6635 71.4986 48.2436 72.5418 49.2757C73.5849 50.3079 74.1707 51.7075 74.1702 53.1667C74.1697 54.6258 73.583 56.0251 72.5391 57.0565C71.4953 58.088 70.0798 58.6671 68.604 58.6667Z" fill="url(#paint0_linear_11_318)"/>
<defs>
<linearGradient id="paint0_linear_11_318" x1="44.4998" y1="14.6667" x2="44.4998" y2="80.6667" gradientUnits="userSpaceOnUse">
<stop stop-color="#284A80"/>
<stop offset="1" stop-color="#284A80" stop-opacity="0.62"/>
</linearGradient>
</defs>
</svg>
