<svg width="66" height="60" viewBox="0 0 66 60" fill="none" xmlns="http://www.w3.org/2000/svg">
<path d="M0 30C0 13.4315 13.4315 0 30 0H36C52.5685 0 66 13.4315 66 30C66 46.5685 52.5685 60 36 60H30C13.4315 60 0 46.5685 0 30Z" fill="white"/>
<path d="M45.8455 38.6719L47.3086 30H38.1562V24.375C38.1562 22.002 39.4324 19.6875 43.5316 19.6875H47.6953V12.3047C47.6953 12.3047 43.9184 11.7188 40.309 11.7188C32.768 11.7188 27.8438 15.873 27.8438 23.3906V30H19.4648V38.6719H27.8438V59.6367C29.526 59.877 31.2469 60 33 60C34.7531 60 36.474 59.877 38.1562 59.6367V38.6719H45.8455Z" fill="#284A80"/>
</svg>
