<svg width="99" height="92" viewBox="0 0 99 92" fill="none" xmlns="http://www.w3.org/2000/svg">
<path d="M74.25 11.5C75.2603 11.5001 76.2355 11.8448 76.9905 12.4687C77.7456 13.0927 78.2279 13.9524 78.3461 14.8848L78.375 15.3333V76.6667C78.3738 77.6437 77.9712 78.5834 77.2495 79.2939C76.5278 80.0044 75.5413 80.4319 74.4917 80.4891C73.4422 80.5464 72.4087 80.2291 71.6024 79.602C70.7962 78.9749 70.2781 78.0854 70.1539 77.1152L70.125 76.6667V57.5H66C64.9897 57.4999 64.0145 57.1552 63.2595 56.5313C62.5044 55.9073 62.0221 55.0476 61.9039 54.1152L61.875 53.6667V30.6667C61.875 22.195 68.0625 11.5 74.25 11.5ZM49.5 11.5C50.5103 11.5001 51.4855 11.8448 52.2405 12.4687C52.9956 13.0927 53.4779 13.9524 53.5961 14.8848L53.625 15.3333V34.5C53.6245 37.8997 52.4089 41.2029 50.169 43.8908C47.9291 46.5788 44.7918 48.4991 41.25 49.3503V76.6667C41.2488 77.6437 40.8462 78.5834 40.1245 79.2939C39.4028 80.0044 38.4163 80.4319 37.3667 80.4891C36.3172 80.5464 35.2837 80.2291 34.4774 79.602C33.6712 78.9749 33.1531 78.0854 33.0289 77.1152L33 76.6667V49.3503C29.5987 48.5332 26.5667 46.7291 24.3448 44.2003C22.1229 41.6715 20.827 38.55 20.6456 35.2897L20.625 34.5V15.3333C20.6262 14.3563 21.0288 13.4165 21.7505 12.7061C22.4722 11.9956 23.4587 11.5681 24.5083 11.5108C25.5578 11.4536 26.5913 11.7709 27.3976 12.398C28.2038 13.0251 28.7219 13.9146 28.8461 14.8848L28.875 15.3333V34.5C28.875 35.8457 29.2563 37.1678 29.9803 38.3332C30.7044 39.4987 31.7459 40.4665 33 41.1393V15.3333C33.0012 14.3563 33.4038 13.4165 34.1255 12.7061C34.8472 11.9956 35.8337 11.5681 36.8833 11.5108C37.9328 11.4536 38.9663 11.7709 39.7726 12.398C40.5788 13.0251 41.0969 13.9146 41.2211 14.8848L41.25 15.3333L41.2541 41.1393C42.4053 40.521 43.3785 39.6532 44.091 38.61C44.8035 37.5668 45.2341 36.379 45.3461 35.1478L45.375 34.5V15.3333C45.375 14.3167 45.8096 13.3416 46.5832 12.6228C47.3568 11.9039 48.406 11.5 49.5 11.5Z" fill="url(#paint0_linear_11_310)"/>
<defs>
<linearGradient id="paint0_linear_11_310" x1="49.5" y1="11.5" x2="49.5" y2="80.4957" gradientUnits="userSpaceOnUse">
<stop stop-color="#284A80"/>
<stop offset="1" stop-color="#284A80" stop-opacity="0.62"/>
</linearGradient>
</defs>
</svg>
