<svg width="114" height="100" viewBox="0 0 114 100" fill="none" xmlns="http://www.w3.org/2000/svg">
<path d="M61.75 83.3333V79.1667M61.75 83.3333H19C17.7402 83.3333 16.532 82.8943 15.6412 82.1129C14.7504 81.3315 14.25 80.2717 14.25 79.1667V41.6667C14.25 40.5616 14.7504 39.5018 15.6412 38.7204C16.532 37.939 17.7402 37.5 19 37.5H33.25L61.75 83.3333ZM61.75 83.3333H76C77.2598 83.3333 78.468 82.8943 79.3588 82.1129C80.2496 81.3315 80.75 80.2717 80.75 79.1667V68.75L61.75 83.3333Z" stroke="url(#paint0_linear_11_306)" stroke-width="2" stroke-linecap="round" stroke-linejoin="round"/>
<path fill-rule="evenodd" clip-rule="evenodd" d="M104.5 25C104.5 22.7899 103.499 20.6703 101.718 19.1074C99.9359 17.5446 97.5196 16.6667 95 16.6667H38C35.4804 16.6667 33.0641 17.5446 31.2825 19.1074C29.5009 20.6703 28.5 22.7899 28.5 25V62.5C28.5 64.7101 29.5009 66.8297 31.2825 68.3926C33.0641 69.9554 35.4804 70.8333 38 70.8333H95C97.5196 70.8333 99.9359 69.9554 101.718 68.3926C103.499 66.8297 104.5 64.7101 104.5 62.5V25ZM85.5 25.0042C85.5 26.1092 84.9996 27.169 84.1088 27.9504C83.218 28.7319 82.0098 29.1708 80.75 29.1708C79.4902 29.1708 78.282 28.7319 77.3912 27.9504C76.5004 27.169 76 26.1092 76 25.0042V25C76 23.8949 76.5004 22.8351 77.3912 22.0537C78.282 21.2723 79.4902 20.8333 80.75 20.8333C82.0098 20.8333 83.218 21.2723 84.1088 22.0537C84.9996 22.8351 85.5 23.8949 85.5 25V25.0042ZM80.75 45.8375C82.0098 45.8375 83.218 45.3985 84.1088 44.6171C84.9996 43.8357 85.5 42.7759 85.5 41.6708V41.6667C85.5 40.5616 84.9996 39.5018 84.1088 38.7204C83.218 37.939 82.0098 37.5 80.75 37.5C79.4902 37.5 78.282 37.939 77.3912 38.7204C76.5004 39.5018 76 40.5616 76 41.6667V41.6708C76 42.7759 76.5004 43.8357 77.3912 44.6171C78.282 45.3985 79.4902 45.8375 80.75 45.8375V45.8375ZM85.5 58.3375C85.5 59.4426 84.9996 60.5024 84.1088 61.2838C83.218 62.0652 82.0098 62.5042 80.75 62.5042C79.4902 62.5042 78.282 62.0652 77.3912 61.2838C76.5004 60.5024 76 59.4426 76 58.3375V58.3333C76 57.2283 76.5004 56.1685 77.3912 55.3871C78.282 54.6057 79.4902 54.1667 80.75 54.1667C82.0098 54.1667 83.218 54.6057 84.1088 55.3871C84.9996 56.1685 85.5 57.2283 85.5 58.3333V58.3375V58.3375Z" fill="url(#paint1_linear_11_306)"/>
<defs>
<linearGradient id="paint0_linear_11_306" x1="47.5" y1="37.5" x2="47.5" y2="83.3333" gradientUnits="userSpaceOnUse">
<stop stop-color="#284A80"/>
<stop offset="1" stop-color="#284A80" stop-opacity="0.62"/>
</linearGradient>
<linearGradient id="paint1_linear_11_306" x1="66.5" y1="16.6667" x2="66.5" y2="70.8333" gradientUnits="userSpaceOnUse">
<stop stop-color="#284A80"/>
<stop offset="1" stop-color="#284A80" stop-opacity="0.62"/>
</linearGradient>
</defs>
</svg>
