<svg width="1440" height="1327" viewBox="0 0 1440 1327" fill="none" xmlns="http://www.w3.org/2000/svg">
<path d="M0 41.8642L86.7835 16.1059C139.889 0.343512 196.323 -0.407091 249.829 13.9373L275.681 20.8678C326.973 34.6187 380.997 34.508 432.233 20.5472L478.242 8.01053C516.697 -2.46793 557.271 -2.35312 595.667 8.3428L600.082 9.57278C675.877 30.687 756.039 30.3899 831.676 8.71437V8.71437C869.8 -2.21109 910.218 -2.27196 948.375 8.53862L987.641 19.6634C1038.95 34.2008 1093.21 34.7974 1144.83 21.3917L1180.52 12.122C1231.29 -1.06203 1284.62 -0.706772 1335.2 13.1523L1440 41.8642V1327H734H0V41.8642Z" fill="url(#paint0_linear_111_29)"/>
<defs>
<linearGradient id="paint0_linear_111_29" x1="720" y1="-138.882" x2="720" y2="1327" gradientUnits="userSpaceOnUse">
<stop stop-color="#336081"/>
<stop offset="1" stop-color="#4A7C85"/>
</linearGradient>
</defs>
</svg>
