<svg width="98" height="92" viewBox="0 0 98 92" fill="none" xmlns="http://www.w3.org/2000/svg">
<path d="M67.3752 16.79C71.8855 16.79 75.5418 13.3575 75.5418 9.12333C75.5418 4.88915 71.8855 1.45667 67.3752 1.45667C62.8648 1.45667 59.2085 4.88915 59.2085 9.12333C59.2085 13.3575 62.8648 16.79 67.3752 16.79Z" fill="url(#paint0_linear_11_314)"/>
<path d="M98.0002 45.54V27.5233L77.3794 19.32C73.4186 17.7483 68.8452 19.09 66.5585 22.54L62.4752 28.6733C59.7394 33.1967 54.6761 36.57 48.5511 37.5667L48.796 37.7967C51.6135 40.4417 55.0027 41.8983 58.841 42.2817C62.1077 40.6717 65.0477 38.525 67.3752 35.995L69.8252 47.495L65.0885 51.7117L61.2502 55.1233V83.8733H69.4169V60.8733L77.9919 53.2067L85.3419 83.8733H93.9169L85.0152 41.7067L82.4836 29.8233L89.8335 32.5067V45.54H98.0002ZM42.0177 31.0117C42.916 31.5867 43.9369 31.9317 44.9577 32.1233C45.4886 32.2 45.9786 32.2767 46.5094 32.2767C47.0402 32.2767 47.5711 32.2383 48.0611 32.1233C48.5919 32.0467 49.0819 31.8933 49.5719 31.7017C50.5519 31.3183 51.491 30.7817 52.2669 30.015C54.2677 28.1367 55.0027 25.53 54.5127 23.115C54.2269 21.6967 53.4919 20.2783 52.2669 19.1667C51.491 18.4383 50.5519 17.8633 49.5719 17.48C49.0819 17.2883 48.5919 17.135 48.0611 17.0583C47.5302 16.9817 47.0402 16.905 46.5094 16.905C46.0194 16.905 45.5702 16.9433 45.0802 17.02C44.5085 17.0967 43.9369 17.25 43.406 17.4417C42.4669 17.8633 41.5277 18.4383 40.7519 19.1667C39.5269 20.2783 38.7919 21.6967 38.5061 23.115C38.0161 25.53 38.751 28.1367 40.7519 30.015C41.1194 30.3983 41.5685 30.705 42.0177 31.0117Z" fill="url(#paint1_linear_11_314)"/>
<path d="M45.8966 40.48L37.7299 32.8133C37.3216 32.43 36.9133 32.1233 36.4641 31.8167C35.5712 31.2765 34.5711 30.9114 33.5241 30.7433C32.9933 30.6283 32.5033 30.59 31.9724 30.59C29.8899 30.59 27.8074 31.3567 26.2149 32.8517L12.5766 45.655C10.9024 47.2267 10.0449 49.4117 10.2083 51.5583C10.2083 52.2483 10.3716 52.9767 10.6574 53.6667L15.0266 64.975L0.204102 78.89L5.9616 84.3333L23.2749 68.08V59.57L28.5833 64.2083V83.8733H36.7499V60.8733L28.0933 52.7467L37.7299 43.7L40.6291 46.4217C45.8966 51.2517 52.7566 54.2417 61.1683 54.2417L60.5966 46.3067C54.4716 46.23 49.5716 43.93 45.8966 40.48Z" fill="url(#paint2_linear_11_314)"/>
<defs>
<linearGradient id="paint0_linear_11_314" x1="67.3752" y1="1.45667" x2="67.3752" y2="16.79" gradientUnits="userSpaceOnUse">
<stop stop-color="#284A80"/>
<stop offset="1" stop-color="#284A80" stop-opacity="0.62"/>
</linearGradient>
<linearGradient id="paint1_linear_11_314" x1="68.1798" y1="16.905" x2="68.1798" y2="83.8733" gradientUnits="userSpaceOnUse">
<stop stop-color="#284A80"/>
<stop offset="1" stop-color="#284A80" stop-opacity="0.62"/>
</linearGradient>
<linearGradient id="paint2_linear_11_314" x1="30.6862" y1="30.59" x2="30.6862" y2="84.3333" gradientUnits="userSpaceOnUse">
<stop stop-color="#284A80"/>
<stop offset="1" stop-color="#284A80" stop-opacity="0.62"/>
</linearGradient>
</defs>
</svg>
