<svg width="103" height="100" viewBox="0 0 103 100" fill="none" xmlns="http://www.w3.org/2000/svg">
<path d="M60.0832 12.5C60.0832 7.91667 63.9457 4.16667 68.6665 4.16667C73.3874 4.16667 77.2499 7.91667 77.2499 12.5C77.2499 17.0833 73.3874 20.8333 68.6665 20.8333C63.9457 20.8333 60.0832 17.0833 60.0832 12.5ZM27.252 39.7083C29.269 40.9167 31.9299 40.3333 33.1745 38.375L39.054 29.1667H49.1395L38.3674 45.7917C37.1657 47.6667 36.7795 49.9583 37.2945 52.125L40.7707 66.6667L25.7499 76.4583L23.7328 76.0417C19.6128 75.2083 16.394 72.5 14.7203 69.0833C14.5189 68.6477 14.2166 68.2631 13.837 67.9595C13.4573 67.656 13.0105 67.4417 12.5315 67.3333C10.6861 66.9583 9.01237 68.1667 8.66904 69.75C8.49737 70.3333 8.5832 71.0417 8.88362 71.6667C11.3728 76.8333 16.2224 80.8333 22.4024 82.125L76.6061 93.3333C82.7861 94.625 88.8803 92.875 93.3436 89.125C93.9015 88.6667 94.2449 88.0417 94.3736 87.4167C94.717 85.8333 93.687 84.0833 91.8415 83.7083C91.3584 83.6138 90.8594 83.6285 90.3831 83.7513C89.9068 83.8742 89.466 84.1018 89.0949 84.4167C86.1336 86.9167 82.0565 88.0833 77.9365 87.2083L72.9582 86.2083L69.1815 63.5833C68.8382 61.5417 67.7224 59.7083 66.0915 58.4167L54.4182 49.2917L62.1432 37.25C64.2178 40.473 66.9672 43.2365 70.2129 45.3612C73.4587 47.486 77.1283 48.9245 80.9836 49.5833C83.5586 50.0417 85.8332 47.9583 85.8332 45.4167C85.8332 43.4167 84.3311 41.7083 82.2711 41.3333C79.1637 40.7647 76.2474 39.4644 73.7782 37.5466C71.309 35.6287 69.3622 33.1519 68.1086 30.3333L65.877 25.2917C65.0615 23.5 62.7011 20.8333 58.7957 20.8333H39.097C36.1357 20.8333 33.389 22.3333 31.8011 24.75L25.8786 33.9583C24.634 35.9167 25.2349 38.5 27.252 39.7083ZM37.4661 78.875L47.1224 72.5833C49.1395 71.25 50.2553 68.9167 49.912 66.5833L48.5386 56.5833L60.727 65L63.9457 84.3333L37.4661 78.875Z" fill="url(#paint0_linear_11_304)"/>
<defs>
<linearGradient id="paint0_linear_11_304" x1="51.5103" y1="4.16667" x2="51.5103" y2="93.7553" gradientUnits="userSpaceOnUse">
<stop stop-color="#284A80"/>
<stop offset="1" stop-color="#284A80" stop-opacity="0.62"/>
</linearGradient>
</defs>
</svg>
